<svg xmlns="http://www.w3.org/2000/svg" xmlns:xlink="http://www.w3.org/1999/xlink" width="11" height="16" viewBox="0 0 11 16"><defs><path id="hnq9a" d="M809.997 1704.998a.516.516 0 0 0-.189-.369l-8.803-7.473a.711.711 0 0 0-.434-.16.711.711 0 0 0-.434.16l-.945.802a.517.517 0 0 0-.189.37c0 .127.076.272.189.368l7.424 6.302-7.424 6.302a.517.517 0 0 0-.189.37.49.49 0 0 0 .189.368l.945.802c.113.096.283.16.434.16a.711.711 0 0 0 .434-.16l8.803-7.473a.516.516 0 0 0 .19-.369z"/></defs><g><g transform="translate(-799 -1697)"><use xlink:href="#hnq9a"/></g></g></svg>