<svg xmlns="http://www.w3.org/2000/svg" xmlns:xlink="http://www.w3.org/1999/xlink" width="11" height="16" viewBox="0 0 11 16"><defs><path id="52cma" d="M778.007 1698.327a.489.489 0 0 0-.19-.369l-.946-.801a.713.713 0 0 0-.435-.16.713.713 0 0 0-.436.16l-8.82 7.472a.516.516 0 0 0-.19.37c0 .128.076.272.19.368l8.82 7.473c.114.096.284.16.436.16a.713.713 0 0 0 .435-.16l.946-.802a.516.516 0 0 0 .19-.369.517.517 0 0 0-.19-.369l-7.439-6.302 7.44-6.302a.516.516 0 0 0 .189-.369z"/></defs><g><g transform="translate(-767 -1697)"><use xlink:href="#52cma"/></g></g></svg>